<?xml version="1.0" encoding="utf-8"?>
<!-- Generator: Adobe Illustrator 15.0.2, SVG Export Plug-In  -->
<!DOCTYPE svg PUBLIC "-//W3C//DTD SVG 1.1//EN" "http://www.w3.org/Graphics/SVG/1.1/DTD/svg11.dtd" [
	<!ENTITY ns_flows "http://ns.adobe.com/Flows/1.0/">
]>
<svg version="1.1"
	 xmlns="http://www.w3.org/2000/svg" xmlns:xlink="http://www.w3.org/1999/xlink" xmlns:a="http://ns.adobe.com/AdobeSVGViewerExtensions/3.0/"
	 x="0px" y="0px" width="300px" height="300px" viewBox="-18.104 -13.225 300 300" enable-background="new -18.104 -13.225 300 300"
	 xml:space="preserve">
<defs>
</defs>
<path fill="#231F20" d="M262.225,189.767c-11.839-64.016-44.459-90.578-44.459-90.578l-0.005,0.034
	c-0.882-1.704-2.641-2.881-4.693-2.881c-2.927,0-5.302,2.374-5.302,5.302c0,0-3.105,37.525-38.285,57.031l-5.342-25.699
	c30.571-20.519,36.252-64.662,36.252-64.662c1.315,0,2.501-0.516,3.396-1.343v0.009c2.553,1.097,4.995,2.626,7.323,4.469
	c1.736,4.574,2.746,8.017,2.978,8.844c-0.128-0.473-0.465-1.762-1.021-4.092c-0.203-1.272-0.438-2.498-0.687-3.704
	c21.139,18.093,32.287,61.59,27.67,42.254c-6.346-28.113-21.21-43.61-29.855-50.538c-6.988-21.447-20.813-29.858-23.374-31.258
	c-0.8-0.891-1.945-1.461-3.236-1.461c-2.413,0-4.365,1.954-4.365,4.364c0,0-2.297,27.692-27.125,44.265h-40.4
	C86.866,63.551,84.569,35.859,84.569,35.859c0-2.411-1.952-4.364-4.365-4.364c-1.291,0-2.437,0.57-3.236,1.461
	c-2.561,1.4-16.385,9.811-23.373,31.258c-8.646,6.928-23.51,22.425-29.855,50.538c-4.617,19.336,6.53-24.161,27.67-42.254
	c-0.248,1.206-0.483,2.432-0.687,3.704c-0.556,2.33-0.893,3.62-1.021,4.092c0.231-0.827,1.241-4.27,2.978-8.844
	c2.328-1.843,4.771-3.373,7.323-4.469v-0.009c0.896,0.827,2.081,1.343,3.396,1.343c0,0,5.68,44.143,36.251,64.662l-5.342,25.699
	c-35.18-19.506-38.284-57.031-38.284-57.031c0-2.928-2.375-5.302-5.302-5.302c-2.053,0-3.812,1.177-4.693,2.881l-0.005-0.034
	c0,0-32.62,26.562-44.459,90.578c-5.965,32.254,6.849-52.801,45.739-82.82l-0.245-1.48c0.953,0.912,2.239,1.48,3.663,1.48
	c0,0,6.258,48.621,40.395,69.586v11.1h81.555v-11.1c34.138-20.965,40.396-69.586,40.396-69.586c1.424,0,2.71-0.568,3.663-1.48
	l-0.245,1.48C255.376,136.966,268.189,222.021,262.225,189.767z M183.585,40.223c1.141,0,2.17-0.448,2.948-1.165v0.006
	c8.873,2.876,15.745,13.132,20.416,22.719c-1.282-0.893-2.261-1.491-2.805-1.807c-0.92-1.044-2.253-1.715-3.754-1.715
	c-2.779,0-5.028,2.25-5.028,5.027c0,0-2.851,34.401-34.663,53.133l-4.757-22.888C179.134,74.799,183.585,40.223,183.585,40.223z
	 M68.427,63.288c0-2.776-2.249-5.027-5.027-5.027c-1.502,0-2.834,0.671-3.754,1.715c-0.544,0.316-1.522,0.914-2.807,1.807
	c4.672-9.587,11.545-19.843,20.418-22.719v-0.006c0.778,0.717,1.807,1.165,2.947,1.165c0,0,4.451,34.576,27.643,53.31l-4.756,22.888
	C71.278,97.689,68.427,63.288,68.427,63.288z"/>
<path fill="#B2D235" d="M240.521,143.921l-45.739,79.225H69.009l-45.741-79.227c-0.98,1.898-1.916,3.809-2.822,5.719l45.502,78.811
	h131.896l45.5-78.811C242.438,147.73,241.503,145.82,240.521,143.921z"/>
<path fill="#B2D235" d="M16.866,132.83L6.124,114.224L69.009,5.302h125.772l62.885,108.922l-10.742,18.606
	c0.947,1.829,1.89,3.734,2.825,5.714l14.041-24.32L197.843,0H65.947L0,114.224l14.041,24.32
	C14.977,136.564,15.919,134.659,16.866,132.83z"/>
<path fill="#231F20" d="M20.641,271.044h11.162v2.258H17.957v-25.766h2.684V271.044z"/>
<path fill="#231F20" d="M49.455,249.791H45.95v21.254h3.505v2.258h-9.66v-2.258h3.473v-21.254h-3.473v-2.254h9.66V249.791z"/>
<path fill="#231F20" d="M73.729,249.791H63.03v9.162h7.694v2.254H63.03v9.838h10.949v2.258H60.347v-25.766h13.383V249.791z"/>
<path fill="#231F20" d="M91.525,267.648h0.072l1.287-20.111h2.899l-1.971,26.014h-3.075l-3.256-11.164l-3.291,11.164H81.22
	l-2.147-26.014h2.897l1.362,20.111h0.069l4.081-12.918L91.525,267.648z"/>
<path fill="#231F20" d="M116.692,249.791h-10.699v9.162h7.694v2.254h-7.694v9.838h10.95v2.258H103.31v-25.766h13.383V249.791z"/>
<path fill="#231F20" d="M147.561,258.808h8.947v-11.271h2.685v25.766h-2.685v-12.238h-8.947v12.238h-2.684v-25.766h2.684V258.808z"
	/>
<path fill="#231F20" d="M181.136,249.791h-10.697v9.162h7.694v2.254h-7.694v9.838h10.949v2.258h-13.633v-25.766h13.381V249.791z"/>
<path fill="#231F20" d="M190.632,247.537l4.365,9.982l4.366-9.982h3.112l-6.084,12.775l6.265,12.99h-3.115l-4.544-10.309
	l-4.543,10.309h-3.079l6.298-13.023l-6.118-12.742H190.632z"/>
<path fill="#231F20" d="M221.309,249.791h-3.505v21.254h3.505v2.258h-9.661v-2.258h3.473v-21.254h-3.473v-2.254h9.661V249.791z"/>
<path fill="#231F20" d="M245.581,249.791h-10.697v9.162h7.694v2.254h-7.694v9.838h10.949v2.258h-13.634v-25.766h13.382V249.791z"/>
</svg>
